<svg xmlns="http://www.w3.org/2000/svg" width="192" height="50" viewBox="0 0 192 50" fill="none">
                        <g clip-path="url(#clip0_4401_2875)">
                          <path d="M72.1973 9.46798C71.6598 9.87 70.9838 10.0722 70.1715 10.0722C69.5975 10.0722 69.099 9.98074 68.6783 9.79778C68.2575 9.61483 67.9025 9.35724 67.6155 9.02744C67.3285 8.69764 67.1145 8.30284 66.971 7.84545C66.8275 7.38806 66.7473 6.88734 66.7278 6.3481C66.7278 5.80886 66.8105 5.31295 66.9783 4.86519C67.1461 4.41743 67.3796 4.02744 67.6787 3.69764C67.9803 3.36784 68.3354 3.11025 68.7488 2.9273C69.1598 2.74434 69.6121 2.65286 70.1034 2.65286C70.743 2.65286 71.2707 2.78286 71.6939 3.04526C72.1146 3.30525 72.4526 3.63746 72.708 4.04189C72.9634 4.44391 73.1385 4.88445 73.2357 5.3611C73.333 5.83774 73.3719 6.29032 73.3549 6.72123H67.9827C67.973 7.03177 68.0095 7.32787 68.0946 7.60712C68.1773 7.88637 68.311 8.13433 68.4983 8.34858C68.6831 8.56283 68.919 8.73616 69.206 8.86374C69.493 8.99133 69.831 9.05633 70.2201 9.05633C70.7187 9.05633 71.1297 8.94078 71.4483 8.71208C71.7668 8.48339 71.9784 8.13433 72.0806 7.66731H73.2455C73.0874 8.46413 72.742 9.06355 72.2046 9.46798H72.1973ZM71.9128 4.90611C71.8058 4.65816 71.6623 4.44631 71.4823 4.26817C71.3023 4.09003 71.0883 3.948 70.8427 3.84208C70.5971 3.73616 70.3271 3.68319 70.0304 3.68319C69.7337 3.68319 69.4492 3.73616 69.2036 3.84208C68.9579 3.948 68.7488 4.09244 68.5713 4.2754C68.3962 4.45835 68.2575 4.6726 68.1554 4.91333C68.0532 5.15647 67.9925 5.41406 67.9754 5.68849H72.0976C72.0781 5.41406 72.0173 5.15166 71.9103 4.90611H71.9128Z" fill="white"/>
                          <mask id="mask0_4401_2875" style="mask-type:luminance" maskUnits="userSpaceOnUse" x="66" y="2" width="8" height="9">
                            <path d="M72.1973 9.46798C71.6598 9.87 70.9838 10.0722 70.1715 10.0722C69.5975 10.0722 69.099 9.98074 68.6783 9.79778C68.2575 9.61483 67.9025 9.35724 67.6155 9.02744C67.3285 8.69764 67.1145 8.30284 66.971 7.84545C66.8275 7.38806 66.7473 6.88734 66.7278 6.3481C66.7278 5.80886 66.8105 5.31295 66.9783 4.86519C67.1461 4.41743 67.3796 4.02744 67.6787 3.69764C67.9803 3.36784 68.3354 3.11025 68.7488 2.9273C69.1598 2.74434 69.6121 2.65286 70.1034 2.65286C70.743 2.65286 71.2707 2.78286 71.6939 3.04526C72.1146 3.30525 72.4526 3.63746 72.708 4.04189C72.9634 4.44391 73.1385 4.88445 73.2357 5.3611C73.333 5.83774 73.3719 6.29032 73.3549 6.72123H67.9827C67.973 7.03177 68.0095 7.32787 68.0946 7.60712C68.1773 7.88637 68.311 8.13433 68.4983 8.34858C68.6831 8.56283 68.919 8.73616 69.206 8.86374C69.493 8.99133 69.831 9.05633 70.2201 9.05633C70.7187 9.05633 71.1297 8.94078 71.4483 8.71208C71.7668 8.48339 71.9784 8.13433 72.0806 7.66731H73.2455C73.0874 8.46413 72.742 9.06355 72.2046 9.46798H72.1973ZM71.9128 4.90611C71.8058 4.65816 71.6623 4.44631 71.4823 4.26817C71.3023 4.09003 71.0883 3.948 70.8427 3.84208C70.5971 3.73616 70.3271 3.68319 70.0304 3.68319C69.7337 3.68319 69.4492 3.73616 69.2036 3.84208C68.9579 3.948 68.7488 4.09244 68.5713 4.2754C68.3962 4.45835 68.2575 4.6726 68.1554 4.91333C68.0532 5.15647 67.9925 5.41406 67.9754 5.68849H72.0976C72.0781 5.41406 72.0173 5.15166 71.9103 4.90611H71.9128Z" fill="white"/>
                          </mask>
                          <g mask="url(#mask0_4401_2875)">
                            <path d="M73.6759 5.5657H67.5523V6.98843H73.6759V5.5657Z" fill="white"/>
                            <path d="M68.9652 10.3876L72.9852 10.3274L73.513 7.53009H72.0173L71.5796 7.92248H68.508L68.9652 10.3876Z" fill="white"/>
                            <path d="M71.8957 10.3563C71.8957 10.3563 65.7988 8.56041 69.3008 3.72651C70.5022 2.06787 69.2279 2.29656 68.1238 3.18246C66.4117 4.55704 66.3047 6.33845 66.3047 6.33845L66.9102 8.88299L68.8339 10.3779L71.8957 10.3539V10.3563Z" fill="white"/>
                            <path opacity="0.15" d="M69.8699 8.44487C69.8699 8.44487 68.2332 7.71545 68.2381 7.78767C68.3232 8.84689 70.1763 10.26 71.9128 8.12229C72.0222 7.98748 71.2902 7.80452 71.2902 7.80452C71.2902 7.80452 70.4049 7.80452 69.8699 8.44487Z" fill="white"/>
                            <path d="M71.3315 4.61964C71.3315 4.61964 65.5556 2.46027 67.5717 9.92055C67.5717 9.92055 64.6947 4.73037 67.7176 3.05488C70.7795 1.35531 73.192 3.12469 73.192 3.12469L71.3291 4.61964H71.3315Z" fill="white"/>
                            <path d="M71.5236 4.48001C71.3194 4.25372 70.7454 3.97447 70.4512 3.89021C69.6924 3.66633 68.2429 3.73855 67.2896 3.90225C66.5114 4.03706 67.6885 2.66489 68.598 2.50119C69.8188 2.28213 71.8471 2.57582 71.8471 2.57582L73.727 3.95281L73.6394 6.92344C73.6394 6.92344 72.3748 6.4179 71.9176 5.30813C71.8301 5.09628 71.6769 4.65333 71.5236 4.48242V4.48001Z" fill="white"/>
                            <path opacity="0.1" d="M73.3816 5.67885C72.7931 4.07077 71.2075 1.87048 66.6549 3.2932C66.453 3.35579 67.6617 2.50119 67.8028 2.47471C70.2663 2.01732 73.1336 2.32787 73.7878 5.51516L73.3816 5.67885Z" fill="white"/>
                            <path d="M68.9652 7.08232C68.5007 7.16176 67.99 7.48916 67.9438 6.82955C67.8976 6.16995 68.0143 5.40683 68.1286 5.36109C68.2454 5.31535 68.8363 5.39479 69.2303 5.39479C69.8772 5.39479 69.4516 6.36975 71.6769 6.9451C72.421 7.13769 68.9628 7.08232 68.9628 7.08232H68.9652Z" fill="white"/>
                          </g>
                          <path d="M54.0671 2.81656V3.94318H54.0939C54.5851 3.08136 55.3609 2.65045 56.4261 2.65045C56.8979 2.65045 57.2919 2.71545 57.6056 2.84304C57.9193 2.97063 58.1747 3.15117 58.3692 3.37987C58.5638 3.60856 58.7 3.88059 58.7778 4.19836C58.8556 4.51372 58.897 4.86518 58.897 5.25036V9.92296H57.7175V5.11314C57.7175 4.6726 57.5886 4.32595 57.3284 4.06836C57.0681 3.81319 56.7131 3.68319 56.2583 3.68319C55.8984 3.68319 55.5846 3.73856 55.322 3.8493C55.0593 3.96003 54.838 4.1141 54.6629 4.31632C54.4878 4.51853 54.3541 4.75445 54.2665 5.02407C54.179 5.29369 54.1352 5.58979 54.1352 5.90996V9.92296H52.9557V2.81656H54.0671Z" fill="white"/>
                          <mask id="mask1_4401_2875" style="mask-type:luminance" maskUnits="userSpaceOnUse" x="52" y="2" width="7" height="8">
                            <path d="M54.0671 2.81656V3.94318H54.0939C54.5851 3.08136 55.3609 2.65045 56.4261 2.65045C56.8979 2.65045 57.2919 2.71545 57.6056 2.84304C57.9193 2.97063 58.1747 3.15117 58.3692 3.37987C58.5638 3.60856 58.7 3.88059 58.7778 4.19836C58.8556 4.51372 58.897 4.86518 58.897 5.25036V9.92296H57.7175V5.11314C57.7175 4.6726 57.5886 4.32595 57.3284 4.06836C57.0681 3.81319 56.7131 3.68319 56.2583 3.68319C55.8984 3.68319 55.5846 3.73856 55.322 3.8493C55.0593 3.96003 54.838 4.1141 54.6629 4.31632C54.4878 4.51853 54.3541 4.75445 54.2665 5.02407C54.179 5.29369 54.1352 5.58979 54.1352 5.90996V9.92296H52.9557V2.81656H54.0671Z" fill="white"/>
                          </mask>
                          <g mask="url(#mask1_4401_2875)">
                            <path d="M57.501 10.0963L59.2228 10.0843V4.12373L57.2457 3.55801L57.501 10.0963Z" fill="white"/>
                            <path d="M54.5438 10.1348C54.5438 10.1348 55.1542 8.14395 57.1168 2.36157C57.5861 0.974958 52.6201 2.72749 52.6201 2.72749L52.7101 10.1107L54.5462 10.1348H54.5438Z" fill="white"/>
                            <path d="M56.572 4.04189C57.0949 4.0467 52.9144 2.7299 53.8045 10.3731C53.8045 10.3731 53.2281 11.0063 52.7076 10.1083C52.6785 10.0578 52.6882 3.02118 52.7271 2.99711C52.9119 2.88156 53.1211 2.77805 53.3545 2.68897C57.8293 0.955706 59.7992 3.65431 59.7992 3.65431L56.572 4.04429V4.04189Z" fill="white"/>
                            <path d="M55.1274 4.48483C55.1274 4.48483 54.286 5.21665 53.802 4.20798C52.9508 2.43138 56.6109 2.11362 56.6109 2.11362L59.2934 2.76359L59.3858 9.68704C59.3858 9.68704 58.0628 5.54405 57.9363 5.17091C57.3259 3.36783 55.108 4.07077 55.1274 4.48723V4.48483Z" fill="white"/>
                            <path opacity="0.1" d="M59.1912 4.26817C58.1625 3.40154 55.8059 2.04622 52.8098 4.35484C52.7879 4.37169 52.7782 2.66971 52.8098 2.66249C54.6119 2.15695 57.1605 2.01252 59.0721 2.86711C59.111 2.88396 59.1183 2.93693 59.1401 2.97304C59.3785 3.35821 59.2204 4.28984 59.1912 4.26577V4.26817Z" fill="white"/>
                          </g>
                          <path d="M52.2626 9.89408C52.0583 10.012 51.7762 10.0722 51.4163 10.0722C51.1099 10.0722 50.8691 9.98796 50.6867 9.81704C50.5067 9.64853 50.4168 9.37169 50.4168 8.98652C50.0933 9.37169 49.7164 9.64853 49.2859 9.81704C48.8554 9.98555 48.3909 10.0722 47.89 10.0722C47.5665 10.0722 47.2576 10.0361 46.9658 9.96148C46.674 9.88926 46.4211 9.77371 46.2095 9.61723C45.9955 9.46076 45.8277 9.25854 45.7036 9.00578C45.5796 8.75301 45.5164 8.44969 45.5164 8.09099C45.5164 7.68897 45.5869 7.35917 45.7255 7.10159C45.8641 6.844 46.0465 6.63697 46.2727 6.47568C46.4989 6.31439 46.7591 6.19403 47.0509 6.11218C47.3428 6.03033 47.6419 5.96052 47.9459 5.90515C48.2693 5.84015 48.5782 5.79201 48.87 5.76071C49.1619 5.72942 49.4172 5.68368 49.641 5.62349C49.8623 5.56331 50.0398 5.47665 50.1687 5.3635C50.2976 5.24795 50.3632 5.08185 50.3632 4.86278C50.3632 4.60761 50.3146 4.40058 50.2173 4.2441C50.1201 4.08762 49.996 3.96967 49.8428 3.88782C49.6896 3.80597 49.5194 3.7506 49.3297 3.72171C49.14 3.69523 48.9527 3.68079 48.7679 3.68079C48.2693 3.68079 47.851 3.77467 47.5179 3.96244C47.1847 4.15021 47.0047 4.50409 46.9755 5.02648H45.796C45.8155 4.58594 45.9079 4.21521 46.0733 3.9143C46.2411 3.61098 46.4624 3.36784 46.7396 3.18007C47.0169 2.99229 47.333 2.85748 47.6905 2.77564C48.0456 2.69379 48.4274 2.65286 48.836 2.65286C49.1594 2.65286 49.4804 2.67694 49.8015 2.72267C50.1201 2.76841 50.4095 2.8623 50.6697 3.00433C50.9275 3.14636 51.1366 3.34376 51.2947 3.60135C51.4528 3.85652 51.5306 4.19114 51.5306 4.60279V8.24988C51.5306 8.52431 51.5476 8.72412 51.5792 8.85411C51.6108 8.9817 51.7203 9.0467 51.9051 9.0467C52.0072 9.0467 52.1264 9.02744 52.265 8.99133V9.89889L52.2626 9.89408ZM50.3462 6.2518C50.1979 6.36013 50.0033 6.44198 49.7626 6.49013C49.5218 6.54068 49.2689 6.58161 49.0062 6.6129C48.7436 6.6442 48.4761 6.68031 48.2085 6.72123C47.941 6.76216 47.7003 6.82715 47.4862 6.91863C47.2722 7.01011 47.0996 7.1401 46.9658 7.30862C46.8321 7.47713 46.764 7.70823 46.764 7.99952C46.764 8.1921 46.8029 8.35339 46.8831 8.4858C46.9609 8.6182 47.0631 8.72412 47.1896 8.80838C47.3136 8.89022 47.4595 8.95041 47.6273 8.98652C47.7927 9.02263 47.9702 9.04189 48.155 9.04189C48.5441 9.04189 48.8773 8.98892 49.1546 8.88541C49.4318 8.77949 49.658 8.64949 49.8355 8.4882C50.0106 8.32932 50.1419 8.15599 50.2246 7.96822C50.3073 7.78045 50.3487 7.60472 50.3487 7.44102V6.2518H50.3462Z" fill="white"/>
                          <mask id="mask2_4401_2875" style="mask-type:luminance" maskUnits="userSpaceOnUse" x="45" y="2" width="8" height="9">
                            <path d="M52.2626 9.89408C52.0583 10.012 51.7762 10.0722 51.4163 10.0722C51.1099 10.0722 50.8691 9.98796 50.6867 9.81704C50.5067 9.64853 50.4168 9.37169 50.4168 8.98652C50.0933 9.37169 49.7164 9.64853 49.2859 9.81704C48.8554 9.98555 48.3909 10.0722 47.89 10.0722C47.5665 10.0722 47.2576 10.0361 46.9658 9.96148C46.674 9.88926 46.4211 9.77371 46.2095 9.61723C45.9955 9.46076 45.8277 9.25854 45.7036 9.00578C45.5796 8.75301 45.5164 8.44969 45.5164 8.09099C45.5164 7.68897 45.5869 7.35917 45.7255 7.10159C45.8641 6.844 46.0465 6.63697 46.2727 6.47568C46.4989 6.31439 46.7591 6.19403 47.0509 6.11218C47.3428 6.03033 47.6419 5.96052 47.9459 5.90515C48.2693 5.84015 48.5782 5.79201 48.87 5.76071C49.1619 5.72942 49.4172 5.68368 49.641 5.62349C49.8623 5.56331 50.0398 5.47665 50.1687 5.3635C50.2976 5.24795 50.3632 5.08185 50.3632 4.86278C50.3632 4.60761 50.3146 4.40058 50.2173 4.2441C50.1201 4.08762 49.996 3.96967 49.8428 3.88782C49.6896 3.80597 49.5194 3.7506 49.3297 3.72171C49.14 3.69523 48.9527 3.68079 48.7679 3.68079C48.2693 3.68079 47.851 3.77467 47.5179 3.96244C47.1847 4.15021 47.0047 4.50409 46.9755 5.02648H45.796C45.8155 4.58594 45.9079 4.21521 46.0733 3.9143C46.2411 3.61098 46.4624 3.36784 46.7396 3.18007C47.0169 2.99229 47.333 2.85748 47.6905 2.77564C48.0456 2.69379 48.4274 2.65286 48.836 2.65286C49.1594 2.65286 49.4804 2.67694 49.8015 2.72267C50.1201 2.76841 50.4095 2.8623 50.6697 3.00433C50.9275 3.14636 51.1366 3.34376 51.2947 3.60135C51.4528 3.85652 51.5306 4.19114 51.5306 4.60279V8.24988C51.5306 8.52431 51.5476 8.72412 51.5792 8.85411C51.6108 8.9817 51.7203 9.0467 51.9051 9.0467C52.0072 9.0467 52.1264 9.02744 52.265 8.99133V9.89889L52.2626 9.89408ZM50.3462 6.2518C50.1979 6.36013 50.0033 6.44198 49.7626 6.49013C49.5218 6.54068 49.2689 6.58161 49.0062 6.6129C48.7436 6.6442 48.4761 6.68031 48.2085 6.72123C47.941 6.76216 47.7003 6.82715 47.4862 6.91863C47.2722 7.01011 47.0996 7.1401 46.9658 7.30862C46.8321 7.47713 46.764 7.70823 46.764 7.99952C46.764 8.1921 46.8029 8.35339 46.8831 8.4858C46.9609 8.6182 47.0631 8.72412 47.1896 8.80838C47.3136 8.89022 47.4595 8.95041 47.6273 8.98652C47.7927 9.02263 47.9702 9.04189 48.155 9.04189C48.5441 9.04189 48.8773 8.98892 49.1546 8.88541C49.4318 8.77949 49.658 8.64949 49.8355 8.4882C50.0106 8.32932 50.1419 8.15599 50.2246 7.96822C50.3073 7.78045 50.3487 7.60472 50.3487 7.44102V6.2518H50.3462Z" fill="white"/>
                          </mask>
                          <g mask="url(#mask2_4401_2875)">
                            <path d="M51.7057 3.40154C51.7057 3.40154 50.4605 5.07462 49.1035 5.33943C47.7465 5.60423 46.8564 5.7583 46.8564 5.7583L47.5008 7.10158C47.5008 7.10158 48.5685 6.94752 49.0792 6.77178C49.5899 6.59605 51.2582 6.37457 51.7932 5.80404L51.7033 3.40394L51.7057 3.40154Z" fill="white"/>
                            <path d="M52.6614 8.70968C49.4342 8.46895 46.1633 6.74531 49.4805 2.34473C49.5631 2.23399 47.4692 2.29899 47.282 2.4025C45.565 3.35821 44.5412 5.66924 45.2975 8.59894C45.8325 10.6692 49.4902 10.4839 52.5277 10.1396C52.6468 10.1252 52.7198 8.71209 52.6614 8.70727V8.70968Z" fill="white"/>
                            <path d="M51.9951 7.34231C51.9951 7.34231 47.9435 12.2171 45.3218 5.25035C45.2951 5.18054 45.0689 7.47953 45.0762 7.56138C45.1662 8.48579 45.1637 9.15021 46.567 10.0505C48.9697 11.5912 51.5014 8.3582 51.9951 7.34231Z" fill="white"/>
                            <path d="M46.7226 10.118C46.7226 10.118 46.6035 9.16225 49.191 8.6206C49.191 8.6206 50.3487 7.52046 50.2635 4.33798C50.2635 4.33798 53.0384 6.72845 52.5058 10.0313C52.5058 10.0313 49.8282 11.064 46.7226 10.1204V10.118Z" fill="white"/>
                            <path d="M45.7863 4.12374C46.8807 3.78912 48.4809 3.36784 49.7723 4.01782C50.6162 4.44391 51.4625 6.19885 51.7738 8.53154C51.7835 8.60857 51.8321 4.28503 51.8151 4.23929C51.6619 3.79634 51.533 3.23062 51.0831 2.93934C49.5972 1.974 47.7051 2.38806 46.4794 2.92249C46.4162 2.95137 45.7134 4.1454 45.7839 4.12374H45.7863Z" fill="white"/>
                            <path opacity="0.2" d="M45.582 3.67116C45.582 3.67116 51.229 -0.151663 52.5739 7.55416C52.5739 7.55416 53.1357 3.61098 50.767 2.16418C48.3982 0.717379 46.0076 2.90804 45.582 3.67116Z" fill="white"/>
                            <path opacity="0.2" d="M45.4872 8.5171C45.7377 7.29418 46.4916 5.97256 48.532 5.66924C48.7387 5.63794 48.8554 5.45499 48.8554 5.45499C48.8554 5.45499 47.012 5.58257 46.2995 6.04478C43.9721 7.55658 45.4726 8.5845 45.4848 8.5171H45.4872Z" fill="white"/>
                            <path opacity="0.3" d="M50.283 6.43958C50.283 6.43958 50.5432 10.2287 46.9026 7.95859C46.9026 7.95859 46.9901 9.68945 49.0719 9.21521C50.6186 8.86134 50.4192 6.90419 50.2854 6.43958H50.283Z" fill="white"/>
                          </g>
                          <path d="M39.704 2.81656V3.94318H39.7308C40.222 3.08136 40.9978 2.65045 42.063 2.65045C42.5348 2.65045 42.9288 2.71545 43.2425 2.84304C43.5562 2.97063 43.8116 3.15117 44.0061 3.37987C44.2007 3.60856 44.3369 3.88059 44.4147 4.19836C44.4925 4.51372 44.5339 4.86518 44.5339 5.25036V9.92296H43.3544V5.11314C43.3544 4.6726 43.2255 4.32595 42.9653 4.06836C42.705 3.81319 42.35 3.68319 41.8952 3.68319C41.5353 3.68319 41.2215 3.73856 40.9589 3.8493C40.6962 3.96003 40.4749 4.1141 40.2998 4.31632C40.1247 4.51853 39.991 4.75445 39.9034 5.02407C39.8159 5.29369 39.7721 5.58979 39.7721 5.90996V9.92296H38.5926V2.81656H39.704Z" fill="white"/>
                          <mask id="mask3_4401_2875" style="mask-type:luminance" maskUnits="userSpaceOnUse" x="38" y="2" width="7" height="8">
                            <path d="M39.704 2.81656V3.94318H39.7308C40.222 3.08136 40.9978 2.65045 42.063 2.65045C42.5348 2.65045 42.9288 2.71545 43.2425 2.84304C43.5562 2.97063 43.8116 3.15117 44.0061 3.37987C44.2007 3.60856 44.3369 3.88059 44.4147 4.19836C44.4925 4.51372 44.5339 4.86518 44.5339 5.25036V9.92296H43.3544V5.11314C43.3544 4.6726 43.2255 4.32595 42.9653 4.06836C42.705 3.81319 42.35 3.68319 41.8952 3.68319C41.5353 3.68319 41.2215 3.73856 40.9589 3.8493C40.6962 3.96003 40.4749 4.1141 40.2998 4.31632C40.1247 4.51853 39.991 4.75445 39.9034 5.02407C39.8159 5.29369 39.7721 5.58979 39.7721 5.90996V9.92296H38.5926V2.81656H39.704Z" fill="white"/>
                          </mask>
                          <g mask="url(#mask3_4401_2875)">
                            <path d="M43.1209 10.1348L44.8427 10.1204V4.16225L42.8655 3.59653L43.1209 10.1348Z" fill="white"/>
                            <path d="M40.1636 10.1709C40.1636 10.1709 40.7741 8.18005 42.7367 2.39768C43.206 1.01106 38.24 2.76359 38.24 2.76359L38.33 10.1468L40.1661 10.1709H40.1636Z" fill="white"/>
                            <path d="M42.1919 4.08039C42.7148 4.0852 38.5342 2.7684 39.4243 10.4116C39.4243 10.4116 38.848 11.0448 38.3275 10.1468C38.2983 10.0963 38.3081 3.05968 38.347 3.03561C38.5318 2.92006 38.741 2.81654 38.9744 2.72747C43.4492 0.994204 45.4191 3.69281 45.4191 3.69281L42.1919 4.08279V4.08039Z" fill="white"/>
                            <path d="M40.7473 4.52334C40.7473 4.52334 39.9059 5.25516 39.4219 4.2465C38.5707 2.4699 42.2308 2.15213 42.2308 2.15213L44.9132 2.80211L45.0057 9.72555C45.0057 9.72555 43.8894 5.52719 43.7629 5.15406C43.1525 3.35097 40.7303 4.11169 40.7473 4.52575V4.52334Z" fill="white"/>
                            <path opacity="0.1" d="M44.8111 4.30669C43.7824 3.44005 41.4258 2.08473 38.4297 4.39335C38.4078 4.4102 38.3981 2.70823 38.4297 2.701C40.2317 2.19547 42.7804 2.05103 44.6919 2.90563C44.7309 2.92248 44.7381 2.97544 44.76 3.01155C44.9984 3.39672 44.8403 4.32835 44.8111 4.30428V4.30669Z" fill="white"/>
                          </g>
                          <path d="M37.2648 2.81656V9.92055H36.0853V2.81656H37.2648ZM37.4107 0.87626C37.4107 1.27587 37.0824 1.60086 36.6787 1.60086C36.275 1.60086 35.9466 1.27587 35.9466 0.87626C35.9466 0.476645 36.275 0.151657 36.6787 0.151657C37.0824 0.151657 37.4107 0.476645 37.4107 0.87626Z" fill="white"/>
                          <mask id="mask4_4401_2875" style="mask-type:luminance" maskUnits="userSpaceOnUse" x="35" y="0" width="3" height="10">
                            <path d="M37.2648 2.81656V9.92055H36.0853V2.81656H37.2648ZM37.4107 0.87626C37.4107 1.27587 37.0824 1.60086 36.6787 1.60086C36.275 1.60086 35.9466 1.27587 35.9466 0.87626C35.9466 0.476645 36.275 0.151657 36.6787 0.151657C37.0824 0.151657 37.4107 0.476645 37.4107 0.87626Z" fill="white"/>
                          </mask>
                          <g mask="url(#mask4_4401_2875)">
                            <path d="M37.5347 -0.238327H35.7205V10.248H37.5347V-0.238327Z" fill="white"/>
                            <path d="M35.2949 10.1781L36.7224 2.41454L36.9243 2.01252L36.3455 1.70919L36.5863 -0.238327L37.2988 0.129993L37.773 10.1493L35.2949 10.1781Z" fill="white"/>
                            <path d="M35.7691 10.7366L37.3158 3.71208L37.5858 10.4911L35.7691 10.7366Z" fill="white"/>
                            <path opacity="0.2" d="M36.1388 0.27443C36.703 0.399611 37.2745 0.70534 37.7779 1.31439C37.8022 1.34328 38.1403 0.690897 38.1159 0.657194C37.8752 0.32017 37.559 0.0216621 37.1456 -0.197404C37.0264 -0.259994 36.9073 -0.312955 36.7881 -0.358694C36.6689 -0.402026 36.095 0.264801 36.1388 0.27443Z" fill="white"/>
                            <path opacity="0.15" d="M37.3937 3.52431C37.3766 3.5219 36.2312 2.6312 36.2312 2.6312L37.4715 2.68656L37.3937 3.5219V3.52431Z" fill="white"/>
                          </g>
                          <path d="M31.3867 3.84689V2.81656H32.5954V1.75734C32.5954 1.17958 32.7632 0.743858 33.1013 0.44535C33.4393 0.146843 33.933 -0.00241089 34.5799 -0.00241089C34.6918 -0.00241089 34.8182 0.00721838 34.9617 0.0240696C35.1052 0.0433282 35.2317 0.0698087 35.3435 0.105918V1.12181C35.2414 1.0857 35.1295 1.05922 35.0104 1.04718C34.8912 1.03274 34.7793 1.02551 34.6772 1.02551C34.3902 1.02551 34.1689 1.08088 34.0108 1.19162C33.8527 1.30236 33.7749 1.51179 33.7749 1.82474V2.81415H35.1636V3.84448H33.7749V9.91815H32.5954V3.84689H31.3867Z" fill="white"/>
                          <mask id="mask5_4401_2875" style="mask-type:luminance" maskUnits="userSpaceOnUse" x="31" y="-1" width="5" height="11">
                            <path d="M31.3867 3.84689V2.81656H32.5954V1.75734C32.5954 1.17958 32.7632 0.743858 33.1013 0.44535C33.4393 0.146843 33.933 -0.00241089 34.5799 -0.00241089C34.6918 -0.00241089 34.8182 0.00721838 34.9617 0.0240696C35.1052 0.0433282 35.2317 0.0698087 35.3435 0.105918V1.12181C35.2414 1.0857 35.1295 1.05922 35.0104 1.04718C34.8912 1.03274 34.7793 1.02551 34.6772 1.02551C34.3902 1.02551 34.1689 1.08088 34.0108 1.19162C33.8527 1.30236 33.7749 1.51179 33.7749 1.82474V2.81415H35.1636V3.84448H33.7749V9.91815H32.5954V3.84689H31.3867Z" fill="white"/>
                          </mask>
                          <g mask="url(#mask5_4401_2875)">
                            <path d="M35.7667 -0.6259H30.6888V10.5561H35.7667V-0.6259Z" fill="white"/>
                            <path opacity="0.36" d="M32.379 4.02744L32.6003 3.83486C32.6003 3.83486 33.1183 -0.154071 34.5799 -0.194995L32.6003 -0.279251L31.3843 2.29417L31.1727 3.94318L32.379 4.02744Z" fill="white"/>
                            <path opacity="0.2" d="M35.9734 0.105918C35.9734 0.105918 33.7433 -0.108333 33.736 1.62734C33.736 1.62734 32.8751 8.90226 32.8435 9.95667C32.8119 11.0111 32.8046 10.26 32.8046 10.26L34.2759 10.1083L34.4923 7.98748L34.1859 3.96726L34.5434 4.02985L36.0853 1.10255L35.971 0.105918H35.9734Z" fill="white"/>
                            <path opacity="0.15" d="M35.5211 3.83726C35.4967 3.83244 33.702 2.44342 33.702 2.44342L35.6427 2.53249L35.5211 3.83967V3.83726Z" fill="white"/>
                            <path d="M33.9087 10C33.8989 10.0241 33.1256 10.1757 33.1256 10.1757L33.8989 5.48146L33.9062 10H33.9087Z" fill="white"/>
                            <path opacity="0.2" d="M32.7754 0.565718C33.5998 0.368318 34.5507 0.426094 35.6013 0.965333C35.65 0.989406 35.6937 -0.175736 35.6402 -0.209438C35.1101 -0.532019 34.5045 -0.753492 33.8187 -0.789602C33.6193 -0.799231 33.4271 -0.796824 33.2448 -0.78238C33.0624 -0.767936 32.7146 0.577755 32.7778 0.563311L32.7754 0.565718Z" fill="white"/>
                          </g>
                          <path d="M64.3494 4.06355C64.0527 3.8156 63.6539 3.69282 63.1553 3.69282C62.7297 3.69282 62.3722 3.76986 62.0852 3.92633C61.7983 4.08281 61.5697 4.28743 61.397 4.54501C61.2268 4.8026 61.1027 5.09629 61.0298 5.43091C60.9544 5.76552 60.9179 6.11218 60.9179 6.46846C60.9179 6.79826 60.9568 7.11844 61.0371 7.43139C61.1149 7.74193 61.2389 8.02118 61.4043 8.26191C61.5721 8.50505 61.7885 8.70005 62.0561 8.84689C62.3236 8.99374 62.6446 9.06596 63.0142 9.06596C63.5979 9.06596 64.0527 8.9143 64.381 8.61338C64.7093 8.31006 64.9112 7.88396 64.9841 7.3351H66.1928C66.0639 8.21377 65.7332 8.89263 65.2006 9.36928C64.668 9.84593 63.9433 10.0843 63.0264 10.0843C62.4792 10.0843 61.9953 9.99759 61.5745 9.82426C61.1538 9.65094 60.8012 9.40298 60.5191 9.08281C60.237 8.76264 60.023 8.37987 59.8795 7.93452C59.736 7.48916 59.663 7.00289 59.663 6.47087C59.663 5.93885 59.7336 5.44294 59.8722 4.97833C60.0108 4.51613 60.2224 4.1117 60.5045 3.76986C60.7866 3.42561 61.1417 3.15599 61.5672 2.95859C61.9928 2.76119 62.4889 2.66249 63.0532 2.66249C63.4593 2.66249 63.8411 2.71064 64.1986 2.80693C64.5561 2.90322 64.8698 3.05248 65.1422 3.25469C65.4146 3.45691 65.6408 3.70967 65.8159 4.01781C65.991 4.32595 66.1028 4.68945 66.149 5.11073H64.9282C64.8358 4.66297 64.6412 4.31391 64.3445 4.06596L64.3494 4.06355Z" fill="white"/>
                          <mask id="mask6_4401_2875" style="mask-type:luminance" maskUnits="userSpaceOnUse" x="59" y="2" width="8" height="9">
                            <path d="M64.3494 4.06355C64.0527 3.8156 63.6539 3.69282 63.1553 3.69282C62.7297 3.69282 62.3722 3.76986 62.0852 3.92633C61.7983 4.08281 61.5697 4.28743 61.397 4.54501C61.2268 4.8026 61.1027 5.09629 61.0298 5.43091C60.9544 5.76552 60.9179 6.11218 60.9179 6.46846C60.9179 6.79826 60.9568 7.11844 61.0371 7.43139C61.1149 7.74193 61.2389 8.02118 61.4043 8.26191C61.5721 8.50505 61.7885 8.70005 62.0561 8.84689C62.3236 8.99374 62.6446 9.06596 63.0142 9.06596C63.5979 9.06596 64.0527 8.9143 64.381 8.61338C64.7093 8.31006 64.9112 7.88396 64.9841 7.3351H66.1928C66.0639 8.21377 65.7332 8.89263 65.2006 9.36928C64.668 9.84593 63.9433 10.0843 63.0264 10.0843C62.4792 10.0843 61.9953 9.99759 61.5745 9.82426C61.1538 9.65094 60.8012 9.40298 60.5191 9.08281C60.237 8.76264 60.023 8.37987 59.8795 7.93452C59.736 7.48916 59.663 7.00289 59.663 6.47087C59.663 5.93885 59.7336 5.44294 59.8722 4.97833C60.0108 4.51613 60.2224 4.1117 60.5045 3.76986C60.7866 3.42561 61.1417 3.15599 61.5672 2.95859C61.9928 2.76119 62.4889 2.66249 63.0532 2.66249C63.4593 2.66249 63.8411 2.71064 64.1986 2.80693C64.5561 2.90322 64.8698 3.05248 65.1422 3.25469C65.4146 3.45691 65.6408 3.70967 65.8159 4.01781C65.991 4.32595 66.1028 4.68945 66.149 5.11073H64.9282C64.8358 4.66297 64.6412 4.31391 64.3445 4.06596L64.3494 4.06355Z" fill="white"/>
                          </mask>
                          <g mask="url(#mask6_4401_2875)">
                            <path d="M61.8639 10.3129L65.8621 10.2503L66.4311 7.00769L64.8625 7.03899L64.4637 7.85988H61.4092L61.8639 10.3129Z" fill="white"/>
                            <path d="M64.7774 10.2817C64.7774 10.2817 58.7121 8.49542 62.1971 3.68801C63.3936 2.03659 62.1242 2.26528 61.0273 3.14636C59.3226 4.51372 59.218 6.28551 59.218 6.28551L59.8211 8.81801L61.7326 10.3057L64.7774 10.2841V10.2817Z" fill="white"/>
                            <path opacity="0.1" d="M63.8776 8.47615C63.8776 8.47615 62.4744 8.35819 62.5133 8.41838C63.0702 9.25853 64.0794 9.63407 65.9107 8.49541C66.0542 8.40634 65.2857 7.85988 65.2857 7.85988C65.2857 7.85988 64.4078 7.85988 63.8776 8.47615Z" fill="white"/>
                            <path d="M64.2181 4.5739C64.2181 4.5739 58.4714 2.42657 60.4802 9.84833C60.4802 9.84833 57.6202 4.68704 60.6261 3.01877C63.6709 1.32883 66.0712 3.08618 66.0712 3.08618L64.2181 4.5739Z" fill="white"/>
                            <path d="M64.4078 4.43427C64.4078 4.43427 63.3693 4.27539 63.2015 4.02743C62.7856 3.41357 62.0804 2.86951 61.1781 3.20172C60.541 3.43523 61.059 2.97062 61.4991 2.46509C62.3041 1.54068 64.7312 2.5373 64.7312 2.5373L66.5989 3.90707L66.3533 5.36109L64.7993 5.25517L64.4078 4.43186V4.43427Z" fill="white"/>
                            <path opacity="0.1" d="M66.4919 4.26817C65.4632 3.35821 62.81 1.68512 59.5755 4.81223C59.432 4.94944 60.0619 3.68801 60.1713 3.60616C62.0707 2.19788 64.6826 1.32643 66.7619 3.95763" fill="white"/>
                          </g>
                          <path d="M10.365 8.21617C10.6617 8.50023 11.0848 8.64226 11.6393 8.64226C12.0357 8.64226 12.3786 8.54356 12.6656 8.34857C12.9526 8.15117 13.1277 7.94414 13.1909 7.72507H14.9224C14.6452 8.57485 14.2196 9.18391 13.6481 9.54982C13.0742 9.91573 12.3835 10.0987 11.5688 10.0987C11.0046 10.0987 10.4963 10.0096 10.044 9.83148C9.59161 9.65333 9.20736 9.39816 8.89364 9.07076C8.57992 8.74096 8.33672 8.34857 8.16649 7.89118C7.99625 7.43379 7.91113 6.93066 7.91113 6.38179C7.91113 5.83292 7.99868 5.35868 8.17378 4.90129C8.34888 4.4439 8.59937 4.0491 8.92282 3.71448C9.24627 3.37986 9.63052 3.11747 10.0804 2.92488C10.5279 2.73229 11.024 2.636 11.5712 2.636C12.1816 2.636 12.7118 2.75155 13.1641 2.98506C13.6165 3.21857 13.9886 3.53152 14.2804 3.92392C14.5722 4.31631 14.7814 4.76648 14.9103 5.2672C15.0392 5.77033 15.0854 6.29513 15.0489 6.84399H9.88101C9.90776 7.47471 10.0707 7.9321 10.365 8.21617ZM12.5878 4.48482C12.3519 4.22965 11.9944 4.10206 11.5129 4.10206C11.1991 4.10206 10.9389 4.15502 10.7298 4.25853C10.5206 4.36446 10.3552 4.49445 10.2312 4.64852C10.1072 4.805 10.0196 4.96869 9.96856 5.14202C9.91749 5.31535 9.88831 5.47182 9.87858 5.60904H13.079C12.9866 5.11554 12.8237 4.74 12.5878 4.48482Z" fill="white"/>
                          <path d="M19.8812 2.82618V4.12854H18.439V7.64081C18.439 7.97062 18.495 8.18968 18.6044 8.29801C18.7163 8.40875 18.9376 8.46171 19.2683 8.46171C19.3802 8.46171 19.4848 8.4569 19.5869 8.44727C19.6891 8.43764 19.7863 8.42319 19.8788 8.40634V9.91573C19.7134 9.94462 19.5286 9.96147 19.3243 9.9711C19.12 9.98073 18.923 9.98554 18.7284 9.98554C18.4245 9.98554 18.135 9.96388 17.8627 9.92295C17.5903 9.88203 17.3495 9.80259 17.1428 9.68222C16.9361 9.56426 16.7707 9.39334 16.6516 9.17428C16.5324 8.95521 16.4716 8.66633 16.4716 8.31005V4.12613H15.2799V2.82377H16.4716V0.700516H18.439V2.82618H19.8812Z" fill="white"/>
                          <path d="M22.909 2.82617V9.91813H20.9415V2.82617H22.909Z" fill="white"/>
                          <path d="M26.1021 0.125168V5.37794L28.5827 2.82618H30.9101L28.2082 5.4333L31.2141 9.91814H28.8308L26.8633 6.75011L26.1021 7.47712V9.91814H24.1347V0.125168H26.1021Z" fill="white"/>
                          <path d="M5.1533 0.154053V3.41356C4.62557 3.02839 3.99326 2.8021 3.30988 2.8021C1.48106 2.80451 0 4.41982 0 6.41067C0 8.40153 1.48106 10.0168 3.30988 10.0168C3.99326 10.0168 4.62557 9.79055 5.1533 9.40538V9.91814H7.07211V0.154053H5.1533ZM3.34393 8.48097C2.42222 8.48097 1.67561 7.55415 1.67561 6.41067C1.67561 5.2672 2.42222 4.34038 3.34393 4.34038C4.26564 4.34038 5.00982 5.2672 5.00982 6.41067C5.00982 7.55415 4.26321 8.48097 3.34393 8.48097Z" fill="white"/>
                          <path d="M22.9576 1.04718C22.9576 1.61049 22.4955 2.06788 21.9265 2.06788C21.3574 2.06788 20.8953 1.61049 20.8953 1.04718C20.8953 0.483864 21.355 0.026474 21.9265 0.026474C22.498 0.026474 22.9576 0.483864 22.9576 1.04718Z" fill="white"/>
                          <path d="M0 34.2248V18.6037H8.43157C10.6106 18.6037 12.2181 18.9865 13.2566 19.752C14.2926 20.5176 14.813 21.4973 14.813 22.6866C14.813 23.4762 14.5917 24.1791 14.1491 24.7954C13.7065 25.414 13.062 25.9003 12.2205 26.2566C11.3791 26.6129 10.3406 26.791 9.11008 26.791L9.55999 25.585C10.793 25.585 11.8558 25.7559 12.7507 26.0977C13.6457 26.4396 14.3363 26.9355 14.8252 27.583C15.314 28.2306 15.5572 29.0082 15.5572 29.9157C15.5572 31.2686 14.9905 32.3255 13.8548 33.0838C12.7191 33.8421 11.0629 34.2224 8.88391 34.2224H0V34.2248ZM5.23112 30.5416H8.43157C9.01767 30.5416 9.45785 30.4381 9.74969 30.2287C10.044 30.0192 10.1899 29.7159 10.1899 29.3139C10.1899 28.9119 10.044 28.6086 9.74969 28.3991C9.45542 28.1897 9.01767 28.0862 8.43157 28.0862H4.86876V24.6052H7.70928C8.30997 24.6052 8.75015 24.5041 9.0274 24.3043C9.30464 24.1045 9.44326 23.818 9.44326 23.4449C9.44326 23.0717 9.30464 22.7684 9.0274 22.5734C8.75015 22.3808 8.30997 22.2821 7.70928 22.2821H5.22869V30.5392L5.23112 30.5416Z" fill="white"/>
                          <path d="M24.9786 34.5811C22.5588 34.5811 20.6716 33.9336 19.3194 32.6384C17.9672 31.3433 17.2912 29.5282 17.2912 27.1931V18.6013H22.6123V27.0366C22.6123 28.2282 22.8311 29.0708 23.2665 29.5691C23.7018 30.0674 24.2879 30.3178 25.0248 30.3178C25.7616 30.3178 26.3672 30.0674 26.7952 29.5691C27.2232 29.0708 27.4373 28.2258 27.4373 27.0366V18.6013H32.6684V27.1931C32.6684 29.5282 31.9923 31.3433 30.6401 32.6384C29.288 33.9336 27.4008 34.5811 24.981 34.5811H24.9786Z" fill="white"/>
                          <path d="M40.9856 34.5811C39.6627 34.5811 38.3859 34.4319 37.1529 34.1358C35.9199 33.8373 34.9058 33.4521 34.1081 32.9754L35.8226 29.1358C36.5741 29.5667 37.4131 29.9133 38.3373 30.1733C39.2614 30.4333 40.1588 30.5633 41.0319 30.5633C41.5426 30.5633 41.9438 30.5296 42.2381 30.4622C42.5324 30.3948 42.7464 30.2985 42.8801 30.1709C43.0163 30.0457 43.082 29.8917 43.082 29.7135C43.082 29.4319 42.9239 29.208 42.6078 29.0443C42.2916 28.8806 41.8757 28.7434 41.3553 28.6302C40.8373 28.5195 40.2682 28.3991 39.6529 28.2739C39.0377 28.1488 38.4175 27.9803 37.7925 27.7708C37.1675 27.5614 36.5984 27.2869 36.078 26.9451C35.56 26.6033 35.1417 26.1531 34.8255 25.5946C34.5094 25.0361 34.3513 24.3404 34.3513 23.5075C34.3513 22.5397 34.6261 21.6586 35.1733 20.8618C35.7229 20.0674 36.54 19.4295 37.6296 18.9528C38.7191 18.4762 40.0761 18.2378 41.6982 18.2378C42.7658 18.2378 43.8164 18.3486 44.8549 18.5725C45.8909 18.7963 46.8248 19.1382 47.6516 19.598L46.0514 23.4136C45.2707 23.026 44.5144 22.7371 43.7848 22.5421C43.0552 22.3495 42.3451 22.2508 41.6544 22.2508C41.1437 22.2508 40.7376 22.2966 40.436 22.3856C40.1345 22.4747 39.9205 22.5951 39.794 22.7419C39.6651 22.8912 39.6019 23.0549 39.6019 23.233C39.6019 23.5002 39.7599 23.7121 40.0761 23.8686C40.3923 24.025 40.8081 24.155 41.3286 24.2585C41.8466 24.3621 42.4181 24.4752 43.0431 24.5932C43.6657 24.7135 44.2858 24.8748 44.9035 25.0843C45.5188 25.2937 46.0879 25.5681 46.6059 25.91C47.1239 26.2518 47.5422 26.6996 47.8583 27.2484C48.1745 27.7997 48.3326 28.4834 48.3326 29.3019C48.3326 30.2552 48.0578 31.129 47.5106 31.9234C46.9609 32.7203 46.1462 33.3582 45.064 33.8421C43.9818 34.3259 42.6224 34.5667 40.9832 34.5667L40.9856 34.5811Z" fill="white"/>
                          <path d="M49.9133 34.2248V18.6037H55.2344V34.2248H49.9133Z" fill="white"/>
                          <path d="M57.805 34.2248V18.6037H62.1777L70.2031 28.1102H68.1748V18.6037H73.3598V34.2248H68.9871L60.9617 24.7183H62.9899V34.2248H57.805Z" fill="white"/>
                          <path d="M81.1615 30.2528H89.0531V34.2248H75.9328V18.6037H88.7613V22.5758H81.1639V30.2528H81.1615ZM80.8015 24.4054H87.8347V28.1993H80.8015V24.4054Z" fill="white"/>
                          <path d="M96.9886 34.5811C95.6656 34.5811 94.3888 34.4319 93.1558 34.1358C91.9228 33.8373 90.9087 33.4521 90.111 32.9754L91.8256 29.1358C92.577 29.5667 93.4161 29.9133 94.3402 30.1733C95.2643 30.4333 96.1617 30.5633 97.0348 30.5633C97.5455 30.5633 97.9468 30.5296 98.241 30.4622C98.5353 30.3948 98.7493 30.2985 98.8831 30.1709C99.0193 30.0457 99.0849 29.8917 99.0849 29.7135C99.0849 29.4319 98.9269 29.208 98.6107 29.0443C98.2946 28.8806 97.8787 28.7434 97.3582 28.6302C96.8402 28.5195 96.2712 28.3991 95.6559 28.2739C95.0406 28.1488 94.4205 27.9803 93.7954 27.7708C93.1704 27.5614 92.6014 27.2869 92.0809 26.9451C91.5629 26.6033 91.1446 26.1531 90.8285 25.5946C90.5123 25.0361 90.3542 24.3404 90.3542 23.5075C90.3542 22.5397 90.629 21.6586 91.1762 20.8618C91.7259 20.0674 92.543 19.4295 93.6325 18.9528C94.722 18.4762 96.079 18.2378 97.7012 18.2378C98.7688 18.2378 99.8194 18.3486 100.858 18.5725C101.894 18.7963 102.828 19.1382 103.655 19.598L102.054 23.4136C101.274 23.026 100.517 22.7371 99.7878 22.5421C99.0582 22.3495 98.3481 22.2508 97.6574 22.2508C97.1467 22.2508 96.7405 22.2966 96.439 22.3856C96.1374 22.4747 95.9234 22.5951 95.7969 22.7419C95.668 22.8912 95.6048 23.0549 95.6048 23.233C95.6048 23.5002 95.7629 23.7121 96.079 23.8686C96.3952 24.025 96.8111 24.155 97.3315 24.2585C97.8495 24.3621 98.421 24.4752 99.046 24.5932C99.6686 24.7135 100.289 24.8748 100.906 25.0843C101.522 25.2937 102.091 25.5681 102.609 25.91C103.127 26.2518 103.545 26.6996 103.861 27.2484C104.177 27.7997 104.336 28.4834 104.336 29.3019C104.336 30.2552 104.061 31.129 103.514 31.9234C102.964 32.7203 102.149 33.3582 101.067 33.8421C99.9848 34.3259 98.6253 34.5667 96.9862 34.5667L96.9886 34.5811Z" fill="white"/>
                          <path d="M111.799 34.5811C110.476 34.5811 109.199 34.4319 107.966 34.1358C106.733 33.8373 105.719 33.4521 104.922 32.9754L106.636 29.1358C107.388 29.5667 108.227 29.9133 109.151 30.1733C110.075 30.4333 110.972 30.5633 111.845 30.5633C112.356 30.5633 112.76 30.5296 113.052 30.4622C113.346 30.3948 113.56 30.2985 113.694 30.1709C113.83 30.0457 113.898 29.8917 113.898 29.7135C113.898 29.4319 113.74 29.208 113.424 29.0443C113.108 28.8806 112.692 28.7434 112.174 28.6302C111.656 28.5195 111.087 28.3991 110.471 28.2739C109.856 28.1488 109.236 27.9803 108.611 27.7708C107.986 27.5614 107.417 27.2869 106.896 26.9451C106.378 26.6033 105.96 26.1531 105.644 25.5946C105.328 25.0361 105.17 24.3404 105.17 23.5075C105.17 22.5397 105.444 21.6586 105.992 20.8618C106.541 20.0674 107.358 19.4295 108.448 18.9528C109.537 18.4762 110.894 18.2378 112.517 18.2378C113.584 18.2378 114.635 18.3486 115.673 18.5725C116.712 18.7963 117.643 19.1382 118.47 19.598L116.87 23.4136C116.089 23.026 115.333 22.7371 114.603 22.5421C113.874 22.3495 113.163 22.2508 112.473 22.2508C111.962 22.2508 111.556 22.2966 111.254 22.3856C110.953 22.4747 110.739 22.5951 110.612 22.7419C110.483 22.8912 110.42 23.0549 110.42 23.233C110.42 23.5002 110.578 23.7121 110.894 23.8686C111.211 24.025 111.626 24.155 112.147 24.2585C112.665 24.3621 113.236 24.4752 113.859 24.5932C114.482 24.7135 115.102 24.8748 115.719 25.0843C116.335 25.2937 116.904 25.5681 117.422 25.91C117.94 26.2518 118.358 26.6996 118.672 27.2484C118.988 27.7997 119.146 28.4834 119.146 29.3019C119.146 30.2552 118.871 31.129 118.324 31.9234C117.774 32.7203 116.96 33.3582 115.878 33.8421C114.795 34.3259 113.436 34.5667 111.797 34.5667L111.799 34.5811Z" fill="white"/>
                          <path d="M127.49 34.2248V18.6037H135.088C136.561 18.6037 137.833 18.8421 138.908 19.3187C139.983 19.7954 140.812 20.4766 141.398 21.3601C141.985 22.246 142.279 23.2908 142.279 24.4945C142.279 25.6981 141.985 26.7405 141.398 27.6192C140.812 28.4978 139.981 29.1767 138.908 29.6606C137.833 30.1444 136.559 30.3852 135.088 30.3852H130.442L132.809 28.1319V34.2248H127.488H127.49ZM132.811 28.7121L130.445 26.324H134.752C135.489 26.324 136.034 26.1603 136.386 25.8329C136.739 25.5055 136.916 25.0602 136.916 24.4945C136.916 23.9287 136.739 23.4834 136.386 23.156C136.034 22.8286 135.489 22.6649 134.752 22.6649H130.445L132.811 20.2768V28.7121Z" fill="white"/>
                          <path d="M144.015 34.2248V18.6037H149.336V30.142H156.459V34.2248H144.015Z" fill="white"/>
                          <path d="M156.438 34.2248L163.337 18.6037H168.568L175.468 34.2248H169.967L164.872 21.1025H166.946L161.851 34.2248H156.44H156.438ZM160.54 31.5022L161.892 27.7082H169.152L170.504 31.5022H160.538H160.54Z" fill="white"/>
                          <path d="M176.324 34.2248V18.6037H180.696L188.722 28.1102H186.693V18.6037H191.878V34.2248H187.503L179.478 24.7183H181.506V34.2248H176.321H176.324Z" fill="white"/>
                          <path d="M3.80843 50C3.26611 50 2.7627 49.9109 2.29576 49.7376C1.83126 49.5619 1.42755 49.3115 1.08465 48.9865C0.744177 48.6615 0.476662 48.2812 0.28697 47.843C0.094846 47.4049 0 46.9258 0 46.401C0 45.8763 0.094846 45.3972 0.28697 44.9591C0.476662 44.5209 0.746609 44.1406 1.09195 43.8156C1.43728 43.4906 1.84099 43.2402 2.30306 43.0645C2.76513 42.8888 3.27097 42.8021 3.82059 42.8021C4.43101 42.8021 4.98063 42.9056 5.47432 43.1151C5.96557 43.3245 6.379 43.6302 6.71461 44.0347L5.66888 44.9904C5.42811 44.7183 5.1606 44.5137 4.8639 44.3789C4.56963 44.2441 4.24862 44.1743 3.89842 44.1743C3.5701 44.1743 3.26854 44.2272 2.99373 44.3332C2.71892 44.4391 2.48059 44.5907 2.28117 44.7906C2.07932 44.9904 1.92367 45.2239 1.81423 45.4959C1.7048 45.7679 1.64886 46.0688 1.64886 46.401C1.64886 46.7333 1.7048 47.0342 1.81423 47.3062C1.92367 47.5782 2.07932 47.8141 2.28117 48.0115C2.48302 48.2114 2.71892 48.363 2.99373 48.4689C3.26854 48.5749 3.5701 48.6278 3.89842 48.6278C4.24618 48.6278 4.5672 48.5604 4.8639 48.4232C5.15817 48.2884 5.42568 48.079 5.66888 47.8021L6.71461 48.7578C6.379 49.1622 5.96557 49.4704 5.47432 49.6822C4.98307 49.8941 4.42858 50 3.81087 50H3.80843Z" fill="white"/>
                          <path d="M17.1015 50C16.5446 50 16.0314 49.9109 15.5596 49.7304C15.0878 49.5522 14.6792 49.2995 14.3339 48.9745C13.9886 48.6495 13.7211 48.2691 13.5289 47.831C13.3368 47.3929 13.242 46.9162 13.242 46.3987C13.242 45.8811 13.3368 45.4044 13.5289 44.9663C13.7186 44.5282 13.9886 44.1478 14.3388 43.8228C14.6865 43.4978 15.0951 43.2451 15.5645 43.0669C16.0338 42.8888 16.5421 42.7973 17.0917 42.7973C17.6414 42.7973 18.1594 42.8864 18.6239 43.0669C19.0884 43.2451 19.4945 43.4978 19.8398 43.8228C20.1852 44.1478 20.4551 44.5282 20.6497 44.9615C20.8442 45.3948 20.9415 45.8739 20.9415 46.3987C20.9415 46.9234 20.8442 47.3953 20.6497 47.8358C20.4551 48.2764 20.1852 48.6591 19.8398 48.9793C19.4945 49.3019 19.0884 49.5522 18.6239 49.7304C18.1594 49.9085 17.6511 50 17.1015 50ZM17.0917 48.6278C17.4055 48.6278 17.6973 48.5749 17.9599 48.4689C18.225 48.363 18.4561 48.2114 18.6579 48.0116C18.8598 47.8117 19.0154 47.5782 19.1249 47.3062C19.2343 47.0342 19.2902 46.7333 19.2902 46.4011C19.2902 46.0688 19.2343 45.7679 19.1249 45.4959C19.0154 45.2239 18.8598 44.988 18.6628 44.7906C18.4658 44.5908 18.2323 44.4391 17.9648 44.3332C17.6973 44.2273 17.4055 44.1743 17.0917 44.1743C16.778 44.1743 16.4862 44.2273 16.2235 44.3332C15.9585 44.4391 15.7274 44.5908 15.5256 44.7906C15.3237 44.9904 15.1681 45.2239 15.0586 45.4959C14.9492 45.7679 14.8933 46.0688 14.8933 46.4011C14.8933 46.7333 14.9492 47.027 15.0586 47.3014C15.1681 47.5758 15.3237 47.8142 15.5207 48.0116C15.7177 48.2114 15.9512 48.363 16.2187 48.4689C16.4862 48.5749 16.778 48.6278 17.0917 48.6278Z" fill="white"/>
                          <path d="M28.1936 49.8796V42.9177H29.5409L32.5346 47.831H31.8221L34.7672 42.9177H36.1023L36.1217 49.8796H34.5945L34.5848 45.2359H34.8669L32.5152 49.1454H31.7807L29.3804 45.2359H29.7209V49.8796H28.1936Z" fill="white"/>
                          <path d="M43.8164 49.8796V42.9177H46.8612C47.4911 42.9177 48.0334 43.0188 48.4882 43.221C48.943 43.4232 49.2956 43.7121 49.5437 44.0924C49.7917 44.4728 49.9158 44.9206 49.9158 45.4453C49.9158 45.9701 49.7917 46.4107 49.5437 46.7886C49.2956 47.1666 48.943 47.4579 48.4882 47.6601C48.0334 47.8623 47.4911 47.9634 46.8612 47.9634H44.7211L45.4434 47.2364V49.882H43.8164V49.8796ZM45.4434 47.4121L44.7211 46.6466H46.7713C47.2747 46.6466 47.6492 46.5407 47.8972 46.3288C48.1453 46.117 48.2693 45.8209 48.2693 45.4429C48.2693 45.065 48.1453 44.7593 47.8972 44.5474C47.6492 44.3356 47.2747 44.2297 46.7713 44.2297H44.7211L45.4434 43.4641V47.4121Z" fill="white"/>
                          <path d="M58.717 48.5869H62.5449V49.8796H57.0997V42.9177H62.416V44.2104H58.7194V48.5869H58.717ZM58.5954 45.7222H61.9807V46.9764H58.5954V45.7222Z" fill="white"/>
                          <path d="M71.3267 49.8796V44.2297H69.0771V42.9177H75.2056V44.2297H72.9561V49.8796H71.3291H71.3267Z" fill="white"/>
                          <path d="M82.1099 49.8796V42.9177H83.7369V49.8796H82.1099Z" fill="white"/>
                          <path d="M92.8908 49.8796V44.2297H90.6412V42.9177H96.7697V44.2297H94.5202V49.8796H92.8932H92.8908Z" fill="white"/>
                          <path d="M103.672 49.8796V42.9177H105.299V49.8796H103.672Z" fill="white"/>
                          <path d="M116.41 50C115.853 50 115.34 49.9109 114.868 49.7304C114.396 49.5498 113.988 49.2995 113.643 48.9745C113.297 48.6495 113.03 48.2691 112.838 47.831C112.648 47.3929 112.551 46.9162 112.551 46.3987C112.551 45.8811 112.645 45.4044 112.838 44.9663C113.03 44.5282 113.297 44.1478 113.647 43.8228C113.995 43.4978 114.404 43.2451 114.873 43.0669C115.343 42.8888 115.851 42.7973 116.4 42.7973C116.95 42.7973 117.468 42.8864 117.933 43.0669C118.397 43.2451 118.803 43.4978 119.149 43.8228C119.494 44.1478 119.764 44.5282 119.958 44.9615C120.153 45.3948 120.25 45.8739 120.25 46.3987C120.25 46.9234 120.153 47.3953 119.958 47.8358C119.764 48.2764 119.494 48.6591 119.149 48.9793C118.803 49.3019 118.399 49.5522 117.933 49.7304C117.466 49.9085 116.96 50 116.41 50ZM116.4 48.6278C116.714 48.6278 117.006 48.5749 117.269 48.4689C117.531 48.363 117.767 48.2114 117.967 48.0116C118.168 47.8117 118.324 47.5782 118.434 47.3062C118.543 47.0342 118.599 46.7333 118.599 46.4011C118.599 46.0688 118.543 45.7679 118.434 45.4959C118.324 45.2239 118.168 44.988 117.971 44.7906C117.774 44.5908 117.541 44.4391 117.273 44.3332C117.006 44.2273 116.714 44.1743 116.4 44.1743C116.087 44.1743 115.795 44.2273 115.532 44.3332C115.267 44.4391 115.036 44.5908 114.834 44.7906C114.632 44.9904 114.477 45.2239 114.367 45.4959C114.258 45.7679 114.202 46.0688 114.202 46.4011C114.202 46.7333 114.258 47.027 114.367 47.3014C114.477 47.5758 114.632 47.8142 114.829 48.0116C115.026 48.2114 115.26 48.363 115.527 48.4689C115.795 48.5749 116.087 48.6278 116.4 48.6278Z" fill="white"/>
                          <path d="M127.502 49.8796V42.9177H128.85L132.998 47.9297H132.344V42.9177H133.952V49.8796H132.614L128.456 44.8676H129.11V49.8796H127.502Z" fill="white"/>
                          <path d="M150.02 49.8796V48.8348L152.734 46.2975C152.948 46.105 153.106 45.934 153.206 45.78C153.305 45.6283 153.376 45.4887 153.412 45.3635C153.449 45.2383 153.468 45.1228 153.468 45.0144C153.468 44.7352 153.373 44.5233 153.181 44.3717C152.992 44.2224 152.709 44.1478 152.342 44.1478C152.048 44.1478 151.776 44.2032 151.523 44.3163C151.272 44.4295 151.058 44.6052 150.885 44.8435L149.699 44.0876C149.966 43.6904 150.341 43.3751 150.825 43.1415C151.306 42.9104 151.863 42.7925 152.493 42.7925C153.016 42.7925 153.473 42.8767 153.865 43.0452C154.256 43.2138 154.56 43.4521 154.779 43.7554C154.995 44.0611 155.105 44.4246 155.105 44.8483C155.105 45.0746 155.076 45.2985 155.02 45.52C154.964 45.7414 154.85 45.975 154.679 46.2205C154.509 46.466 154.259 46.7405 153.93 47.0462L151.681 49.1454L151.369 48.558H155.338V49.87H150.022L150.02 49.8796Z" fill="white"/>
                          <path d="M165.052 50C164.475 50 163.96 49.858 163.505 49.5763C163.05 49.2947 162.69 48.8854 162.43 48.3486C162.17 47.8117 162.038 47.1618 162.038 46.3987C162.038 45.6355 162.17 44.9856 162.43 44.4487C162.69 43.9119 163.05 43.5026 163.505 43.221C163.96 42.9393 164.475 42.7973 165.052 42.7973C165.628 42.7973 166.151 42.9393 166.603 43.221C167.055 43.5026 167.413 43.9119 167.673 44.4487C167.933 44.9856 168.065 45.6355 168.065 46.3987C168.065 47.1618 167.933 47.8117 167.673 48.3486C167.413 48.8854 167.055 49.2947 166.603 49.5763C166.151 49.858 165.633 50 165.052 50ZM165.052 48.6375C165.326 48.6375 165.565 48.5604 165.769 48.4088C165.973 48.2571 166.134 48.014 166.251 47.6818C166.367 47.3495 166.426 46.9234 166.426 46.3987C166.426 45.8739 166.367 45.4478 166.251 45.1156C166.134 44.7833 165.973 44.5426 165.769 44.3885C165.565 44.2345 165.326 44.1598 165.052 44.1598C164.777 44.1598 164.548 44.2369 164.344 44.3885C164.14 44.5402 163.979 44.7833 163.862 45.1156C163.746 45.4478 163.687 45.8739 163.687 46.3987C163.687 46.9234 163.746 47.3495 163.862 47.6818C163.979 48.014 164.14 48.2547 164.344 48.4088C164.548 48.5604 164.784 48.6375 165.052 48.6375Z" fill="white"/>
                          <path d="M174.787 49.8796V48.8348L177.501 46.2975C177.715 46.105 177.873 45.934 177.973 45.78C178.072 45.6283 178.143 45.4887 178.179 45.3635C178.216 45.2383 178.235 45.1228 178.235 45.0144C178.235 44.7352 178.14 44.5233 177.948 44.3717C177.759 44.2224 177.476 44.1478 177.109 44.1478C176.815 44.1478 176.543 44.2032 176.29 44.3163C176.039 44.4295 175.825 44.6052 175.652 44.8435L174.466 44.0876C174.733 43.6904 175.108 43.3751 175.592 43.1415C176.073 42.9104 176.63 42.7925 177.26 42.7925C177.783 42.7925 178.24 42.8767 178.632 43.0452C179.023 43.2138 179.327 43.4521 179.546 43.7554C179.762 44.0611 179.872 44.4246 179.872 44.8483C179.872 45.0746 179.843 45.2985 179.787 45.52C179.731 45.7414 179.617 45.975 179.446 46.2205C179.276 46.466 179.026 46.7405 178.697 47.0462L176.448 49.1454L176.136 48.558H180.105V49.87H174.789L174.787 49.8796Z" fill="white"/>
                          <path d="M189.084 50C188.595 50 188.109 49.935 187.627 49.805C187.146 49.675 186.737 49.4921 186.402 49.2537L187.034 48.0212C187.301 48.2138 187.613 48.3654 187.968 48.4786C188.323 48.5917 188.68 48.6471 189.043 48.6471C189.451 48.6471 189.772 48.5676 190.008 48.4088C190.242 48.2499 190.361 48.0308 190.361 47.7516C190.361 47.4723 190.256 47.2773 190.05 47.1257C189.843 46.974 189.507 46.897 189.045 46.897H188.301V45.8329L190.261 43.635L190.441 44.2128H186.754V42.9201H191.677V43.9649L189.726 46.1627L188.902 45.6957H189.373C190.237 45.6957 190.891 45.8883 191.334 46.2735C191.776 46.6586 191.998 47.1521 191.998 47.7564C191.998 48.1488 191.893 48.5147 191.686 48.8565C191.48 49.1984 191.161 49.4752 190.733 49.687C190.305 49.8989 189.755 50.0048 189.084 50.0048V50Z" fill="white"/>
                        </g>
                        <defs>
                          <clipPath id="clip0_4401_2875">
                            <rect width="192" height="50" fill="white"/>
                          </clipPath>
                        </defs>
                      </svg>