<svg width="23" height="22" viewBox="0 0 23 22" fill="none" xmlns="http://www.w3.org/2000/svg">
<path d="M21.4691 2.07837L22.4669 2.01222C22.4403 1.61107 22.1761 1.26486 21.7962 1.13337C21.4163 1.00188 20.9946 1.11068 20.7257 1.40956L21.4691 2.07837ZM21.0428 6.30538C21.0428 5.75309 20.5951 5.30538 20.0428 5.30538C19.4905 5.30538 19.0428 5.75309 19.0428 6.30538H21.0428ZM11.5 7.57837V8.57837H12.5V7.57837H11.5ZM2.92637 2.07837L3.86287 1.72772C3.72334 1.35505 3.37612 1.10058 2.97873 1.07974C2.58133 1.05891 2.20941 1.27567 2.03166 1.63171L2.92637 2.07837ZM8.5 15.0784L9.20766 15.7849C9.45238 15.5398 9.55284 15.1855 9.47321 14.8485C9.39358 14.5114 9.1452 14.2395 8.81667 14.1298L8.5 15.0784ZM1.5 17.7927V16.7927C1.05946 16.7927 0.670822 17.0809 0.543011 17.5025C0.415201 17.9241 0.578333 18.3797 0.944707 18.6243L1.5 17.7927ZM18.9515 3.46891L18.2098 4.1396L18.5701 4.53808L19.1013 4.45764L18.9515 3.46891ZM20.4713 2.14452C20.544 3.24131 20.4734 3.87016 20.3125 4.32364C20.1591 4.75622 19.8897 5.12576 19.3509 5.64206L20.7346 7.08611C21.3745 6.47297 21.8944 5.84669 22.1974 4.99229C22.4931 4.1588 22.5463 3.20951 22.4669 2.01222L20.4713 2.14452ZM21.0428 7.34622V6.36408H19.0428V7.34622H21.0428ZM21.0428 6.36408V6.30538H19.0428V6.36408H21.0428ZM10.5 6.57837V7.57837H12.5V6.57837H10.5ZM15.8223 1.07837C12.8235 1.07837 10.5 3.67903 10.5 6.57837H12.5C12.5 4.67899 14.0298 3.07837 15.8223 3.07837V1.07837ZM19.0428 7.34622C19.0428 13.372 13.9765 18.5784 8 18.5784V20.5784C15.1201 20.5784 21.0428 14.4372 21.0428 7.34622H19.0428ZM1.98986 2.42902C2.80654 4.61021 5.83814 8.57837 11.5 8.57837V6.57837C6.89202 6.57837 4.47256 3.35605 3.86287 1.72772L1.98986 2.42902ZM2.03166 1.63171C0.511097 4.67754 0.226447 7.70124 1.31373 10.3032C2.40104 12.9052 4.77867 14.8903 8.18333 16.0269L8.81667 14.1298C5.80268 13.1236 3.96713 11.4658 3.1591 9.53209C2.35104 7.59835 2.4889 5.19348 3.82107 2.52503L2.03166 1.63171ZM7.79234 14.3718C6.98383 15.1816 4.60002 16.7927 1.5 16.7927V18.7927C5.24654 18.7927 8.11438 16.8799 9.20766 15.7849L7.79234 14.3718ZM19.6933 2.79823C18.7396 1.74355 17.358 1.07837 15.8223 1.07837V3.07837C16.7687 3.07837 17.6189 3.48617 18.2098 4.1396L19.6933 2.79823ZM19.1013 4.45764C20.2557 4.2828 21.3748 3.67839 22.2126 2.74718L20.7257 1.40956C20.1856 2.00998 19.4805 2.37739 18.8018 2.48019L19.1013 4.45764ZM0.944707 18.6243C3.30076 20.1974 5.57113 20.5784 8 20.5784V18.5784C5.81913 18.5784 3.97834 18.245 2.05529 16.961L0.944707 18.6243Z" fill="#007CBD"/>
</svg>
