<svg width="22" height="22" viewBox="0 0 22 22" fill="none" xmlns="http://www.w3.org/2000/svg">
<path fill-rule="evenodd" clip-rule="evenodd" d="M2.50042 10.5784C2.50042 8.89723 2.99893 7.25384 3.93293 5.85602C4.86692 4.4582 6.19444 3.36874 7.74761 2.72539C9.30078 2.08205 11.0098 1.91372 12.6587 2.24169C14.3075 2.56967 15.8221 3.37922 17.0108 4.56796C18.1996 5.75671 19.0091 7.27126 19.3371 8.9201C19.6651 10.5689 19.4967 12.278 18.8534 13.8312C18.21 15.3844 17.1206 16.7119 15.7228 17.6459C14.3249 18.5799 12.6816 19.0784 11.0004 19.0784C9.39226 19.0812 7.81665 18.6254 6.45842 17.7644C6.3376 17.6879 6.2018 17.6383 6.06017 17.6188C5.91855 17.5993 5.77439 17.6104 5.63742 17.6514L2.75742 18.5104L3.84242 15.9734C3.90548 15.8257 3.93205 15.665 3.91986 15.5048C3.90768 15.3447 3.8571 15.1898 3.77242 15.0534C2.93835 13.71 2.49767 12.1596 2.50042 10.5784ZM11.0004 0.0783691C5.20142 0.0783691 0.500417 4.77937 0.500417 10.5784C0.500417 12.4164 0.973417 14.1464 1.80542 15.6514L0.0804171 19.6854C0.00575691 19.8601 -0.0175686 20.0525 0.0131725 20.24C0.0439136 20.4276 0.127449 20.6024 0.253994 20.7442C0.38054 20.886 0.544858 20.9887 0.727703 21.0405C0.910548 21.0922 1.10435 21.0908 1.28642 21.0364L5.78642 19.6944C7.37344 20.6038 9.17128 21.081 11.0004 21.0784C16.7994 21.0784 21.5004 16.3774 21.5004 10.5784C21.5004 4.77937 16.7994 0.0783691 11.0004 0.0783691ZM13.2934 12.7604L11.9784 13.6864C11.2539 13.2695 10.5886 12.7573 10.0004 12.1634C9.36895 11.5328 8.82296 10.822 8.37642 10.0494L9.21142 9.34037C9.38541 9.19275 9.50368 8.99007 9.54661 8.76597C9.58954 8.54187 9.55454 8.30983 9.44742 8.10837L8.38342 6.10837C8.31261 5.97554 8.21274 5.86042 8.09124 5.77157C7.96974 5.68272 7.82975 5.62245 7.68171 5.59525C7.53367 5.56804 7.3814 5.57461 7.23625 5.61445C7.0911 5.6543 6.95682 5.7264 6.84342 5.82537L6.52742 6.10037C5.76842 6.76237 5.31942 7.85037 5.69142 8.95237C6.28992 10.6955 7.28032 12.2781 8.58642 13.5784C10.3994 15.3914 12.2414 16.1054 13.3194 16.3834C14.1874 16.6064 15.0084 16.3074 15.5874 15.8354L16.1784 15.3534C16.303 15.2518 16.4013 15.1216 16.4649 14.974C16.5285 14.8263 16.5555 14.6655 16.5438 14.5051C16.532 14.3448 16.4817 14.1896 16.3972 14.0529C16.3127 13.9161 16.1965 13.8017 16.0584 13.7194L14.3804 12.7194C14.2145 12.6204 14.0234 12.5715 13.8303 12.5788C13.6373 12.5861 13.4504 12.6492 13.2924 12.7604H13.2934Z" fill="#007CBD"/>
</svg>
